<svg version="1.1" id="Layer_1" xmlns="http://www.w3.org/2000/svg" xmlns:xlink="http://www.w3.org/1999/xlink" x="0px" y="0px"
	 width="100%" viewBox="0 0 576 176" enable-background="new 0 0 576 176" xml:space="preserve">
<path fill="#000000" opacity="1.000000" stroke="none" 
	d="
M446.343506,113.140366 
	C438.296143,126.045120 422.599335,130.456284 410.410553,126.395447 
	C397.309448,122.030647 387.920990,107.432785 389.931335,93.947502 
	C392.210175,78.660851 404.358521,67.950928 419.153900,67.578972 
	C428.399567,67.346535 435.941406,70.869911 442.811401,76.712929 
	C444.246246,74.961601 443.617310,73.073433 443.628418,71.362785 
	C443.701965,60.045612 443.662872,48.727753 443.683624,37.410160 
	C443.688141,34.932373 443.259186,32.116055 447.148224,32.163845 
	C450.750458,32.208107 450.327301,34.840836 450.328705,37.141193 
	C450.341370,57.945644 450.348175,78.750122 450.323364,99.554550 
	C450.317688,104.318237 448.943756,108.726189 446.343506,113.140366 
M432.600433,77.816551 
	C423.867157,72.630608 414.312347,72.759300 406.886719,78.325195 
	C398.413849,84.676041 395.528046,93.320000 397.566528,103.461029 
	C399.846649,114.804207 412.700012,123.352226 423.461060,121.188278 
	C433.980652,119.072884 440.948517,112.790314 443.261566,102.500618 
	C445.518341,92.461304 441.495850,84.276733 432.600433,77.816551 
z"/>
<path fill="#000000" opacity="1.000000" stroke="none" 
	d="
M488.053986,121.054581 
	C500.085083,122.943161 507.946320,116.811127 514.565063,108.042435 
	C517.167480,114.073868 516.393677,117.746597 512.110779,121.179764 
	C501.928802,129.341599 488.477570,130.516281 477.569000,124.196228 
	C467.448090,118.332527 460.438995,105.185440 461.958649,94.915565 
	C464.042053,80.835800 472.466949,71.268692 486.022888,68.314064 
	C496.011841,66.136887 505.104614,68.330772 513.020447,75.105606 
	C516.044861,77.694031 516.546387,79.623665 513.352600,82.664078 
	C503.593750,91.954292 494.089081,101.512367 484.533508,111.014542 
	C482.814667,112.723785 480.590424,114.086182 479.896393,116.768272 
	C481.902710,119.339409 484.896088,119.937424 488.053986,121.054581 
M477.229004,108.536858 
	C486.700287,98.635040 496.171539,88.733215 505.613434,78.862091 
	C497.253204,71.732155 484.256378,72.629593 475.849579,81.206284 
	C467.529694,89.694321 466.689728,102.784027 474.144653,111.119629 
	C474.991302,110.421524 475.857117,109.707581 477.229004,108.536858 
z"/>
<path fill="#000000" opacity="1.000000" stroke="none" 
	d="
M318.495483,125.882561 
	C298.516022,131.876038 280.908508,122.254951 277.138641,103.243454 
	C274.801361,91.456535 278.613556,81.422005 288.073700,73.999939 
	C297.853302,66.327225 308.892548,65.256660 320.022644,70.393631 
	C330.842285,75.387291 336.946655,84.230797 337.290100,96.353882 
	C337.680267,110.124405 331.137665,119.781563 318.495483,125.882561 
M313.795288,120.421700 
	C315.028534,119.924156 316.332184,119.552551 317.483826,118.908974 
	C326.067596,114.112038 330.665283,106.708641 330.529358,96.932144 
	C330.394806,87.256622 323.643463,78.252396 314.644623,75.337334 
	C305.240204,72.290894 296.934326,74.422035 290.063141,81.676582 
	C282.807404,89.337143 281.340698,100.120605 286.379700,108.841240 
	C292.070557,118.689980 301.948059,123.053719 313.795288,120.421700 
z"/>
<path fill="#000000" opacity="1.000000" stroke="none" 
	d="
M259.647491,78.306946 
	C250.671341,72.754890 241.950287,72.623512 233.629028,78.552605 
	C225.835068,84.106003 221.945374,91.960747 223.577789,101.509193 
	C225.294098,111.548340 231.539917,118.261429 241.437683,120.951981 
	C250.359680,123.377289 257.698639,119.982430 264.037994,113.761017 
	C265.757050,112.073929 266.697052,109.592575 269.094330,108.445862 
	C271.423920,114.916283 270.697968,117.866989 265.981598,121.685265 
	C253.683517,131.641510 235.487595,130.169434 224.442566,118.324684 
	C213.744110,106.851608 213.531021,89.115372 223.958115,78.005165 
	C235.423965,65.788185 253.461823,64.093788 265.858185,74.069267 
	C270.621399,77.902275 271.373718,80.759956 269.114014,87.546722 
	C265.792603,84.615089 263.677155,80.684250 259.647491,78.306946 
z"/>
<path fill="#000000" opacity="1.000000" stroke="none" 
	d="
M533.999329,102.869095 
	C534.592102,114.746918 536.969543,117.859505 547.746155,120.992157 
	C549.788330,121.585815 551.028870,122.508583 550.814026,124.776810 
	C550.568298,127.370613 548.658569,127.300018 546.770874,127.342903 
	C536.664490,127.572487 527.021606,117.801483 526.878601,106.209541 
	C526.593079,83.065712 526.795166,59.915993 526.763367,36.768753 
	C526.759766,34.177544 527.122681,32.038708 530.412292,32.084740 
	C533.748901,32.131428 533.981018,34.490997 533.982666,36.945160 
	C533.997070,58.760094 533.992310,80.575043 533.999329,102.869095 
z"/>
<path fill="#000000" opacity="1.000000" stroke="none" 
	d="
M352.188538,74.296570 
	C359.302155,67.142532 367.653625,66.314957 376.474487,68.601151 
	C383.190369,70.341782 383.936096,71.983765 382.803345,79.103722 
	C380.993469,79.839439 380.097137,78.316162 379.016571,77.451775 
	C373.908447,73.365685 368.321960,73.082581 362.616943,75.677139 
	C356.850098,78.299789 355.336395,83.470169 355.332886,89.316284 
	C355.326538,99.965775 355.320709,110.615265 355.306946,121.264748 
	C355.303650,123.800819 355.562653,126.402077 351.682251,126.348015 
	C347.842590,126.294540 348.061951,123.623291 348.053192,121.140961 
	C348.013153,109.826096 347.948944,98.509827 348.091583,87.196556 
	C348.148438,82.689209 348.791199,78.211205 352.188538,74.296570 
z"/>
<path fill="#000000" opacity="1.000000" stroke="none" 
	d="
M26.185881,108.865799 
	C26.100256,100.351341 26.062674,92.219086 26.087202,84.087021 
	C26.093065,82.142723 25.764107,79.569206 28.538431,79.419518 
	C38.059330,78.905792 47.604027,78.430664 56.940376,79.899689 
	C57.286755,81.609863 56.534546,82.304710 55.832230,83.006042 
	C47.261833,91.564407 38.711952,100.143715 30.076855,108.636345 
	C29.127733,109.569794 27.966084,111.898972 26.185881,108.865799 
z"/>
<path fill="#000000" opacity="1.000000" stroke="none" 
	d="
M136.205200,137.117218 
	C146.032181,137.360184 155.447296,136.417084 165.447662,137.958984 
	C162.659653,142.835587 158.819046,145.544418 155.708817,148.876328 
	C152.760574,152.034714 149.618256,155.011383 146.581070,158.087524 
	C145.006332,159.682480 143.335312,160.576630 141.442856,158.664688 
	C135.246078,152.404160 129.080490,146.112640 122.937401,139.799469 
	C122.648468,139.502533 122.691353,138.882751 122.271645,137.118134 
	C126.974464,137.118134 131.353119,137.118134 136.205200,137.117218 
z"/>
<path fill="#000000" opacity="1.000000" stroke="none" 
	d="
M86.774460,84.225449 
	C90.202202,87.759499 93.379814,91.043709 96.557426,94.327927 
	C96.406616,94.780266 96.255798,95.232613 96.104980,95.684952 
	C86.722298,95.684952 77.339157,95.733063 67.957344,95.642853 
	C66.161621,95.625580 64.787460,94.661339 64.788940,92.531334 
	C64.795258,83.407074 64.791634,74.282822 65.536476,64.663040 
	C73.478928,70.233932 79.673355,77.474373 86.774460,84.225449 
z"/>
<path fill="#000000" opacity="1.000000" stroke="none" 
	d="
M75.792923,44.803185 
	C78.794571,41.884869 81.552284,39.241226 84.248291,36.536095 
	C85.829933,34.949100 87.451340,34.004818 89.376961,35.901268 
	C95.957825,42.382439 102.508911,48.893852 109.071358,55.393726 
	C108.910332,55.799904 108.749313,56.206085 108.588287,56.612263 
	C94.407997,56.612263 80.227715,56.612263 65.118019,56.612263 
	C68.033722,51.747093 72.374313,48.891766 75.792923,44.803185 
z"/>
<path fill="#000000" opacity="1.000000" stroke="none" 
	d="
M73.778931,147.208221 
	C71.255730,143.962296 67.710266,142.047516 65.563103,137.372787 
	C80.197166,136.900818 94.128708,136.509521 108.514427,137.855011 
	C107.330780,141.450027 104.670052,143.076401 102.680298,145.172852 
	C98.900017,149.155853 94.796227,152.837296 91.101509,156.894180 
	C88.414009,159.845108 86.341141,160.375320 83.501129,157.032516 
	C80.604271,153.622803 77.217209,150.629532 73.778931,147.208221 
z"/>
<path fill="#000000" opacity="1.000000" stroke="none" 
	d="
M150.890991,108.109787 
	C148.396866,105.307549 145.422668,103.358658 143.457504,99.318802 
	C158.324799,99.318802 172.337677,99.318802 186.350571,99.318802 
	C186.562805,99.711685 186.775024,100.104568 186.987244,100.497452 
	C183.202744,104.315910 179.427979,108.144096 175.631851,111.950958 
	C165.174118,122.438271 165.171585,122.433746 154.678665,111.883698 
	C153.508057,110.706711 152.318008,109.549042 150.890991,108.109787 
z"/>
<path fill="#000000" opacity="1.000000" stroke="none" 
	d="
M125.324661,146.673691 
	C129.378433,150.936584 133.789536,154.422592 137.803986,160.076355 
	C122.416855,160.076355 108.358154,160.076355 93.852211,160.076355 
	C95.691475,155.811554 99.013916,153.695801 101.584656,150.972977 
	C105.122108,147.226257 108.969200,143.770966 112.487839,140.007767 
	C114.764053,137.573334 116.610344,137.812286 118.726372,140.076004 
	C120.768875,142.261047 122.944267,144.321869 125.324661,146.673691 
z"/>
<path fill="#000000" opacity="1.000000" stroke="none" 
	d="
M160.598633,57.298195 
	C147.706223,57.299995 135.264420,57.299995 123.035347,57.299995 
	C121.837952,54.420254 123.653870,53.338696 124.861153,52.131115 
	C130.032120,46.958862 135.287018,41.870628 140.490707,36.730911 
	C141.957031,35.282616 143.406052,33.614292 145.512329,35.631138 
	C152.207687,42.042263 158.846268,48.512669 165.123001,54.588631 
	C164.151276,57.759140 162.393372,57.044445 160.598633,57.298195 
z"/>
<path fill="#000000" opacity="1.000000" stroke="none" 
	d="
M122.882462,49.875854 
	C115.505150,57.186066 115.451431,57.241272 108.076645,50.064880 
	C103.254204,45.372166 98.615173,40.490963 94.169998,34.966652 
	C108.428368,33.395260 122.424446,33.897099 136.415466,33.863983 
	C136.669312,34.398174 136.923172,34.932362 137.177017,35.466549 
	C132.493347,40.184589 127.809662,44.902634 122.882462,49.875854 
z"/>
<path fill="#000000" opacity="1.000000" stroke="none" 
	d="
M175.908997,83.091064 
	C179.734985,86.950043 183.303497,90.566582 186.872025,94.183121 
	C186.686813,94.713341 186.501602,95.243568 186.316391,95.773796 
	C172.355637,95.028145 158.406387,96.429489 144.500809,95.277725 
	C143.816452,93.080650 145.311600,92.254204 146.289337,91.262039 
	C151.427872,86.047676 156.746002,81.003113 161.730484,75.647102 
	C164.348450,72.833992 166.240753,73.068146 168.617554,75.769531 
	C170.810867,78.262367 173.295303,80.499092 175.908997,83.091064 
z"/>
<path fill="#000000" opacity="1.000000" stroke="none" 
	d="
M79.076035,134.249054 
	C75.695564,133.914948 72.671677,134.858215 70.442490,133.870377 
	C80.206245,124.047722 89.999008,114.195900 99.937912,104.197060 
	C100.985176,105.089111 100.448502,107.233574 100.468880,109.083405 
	C100.540337,115.573380 100.188225,122.073563 100.424423,128.554291 
	C100.586700,133.006989 98.766129,134.467163 94.541245,134.283081 
	C89.556831,134.065872 84.555077,134.246887 79.076035,134.249054 
z"/>
<path fill="#000000" opacity="1.000000" stroke="none" 
	d="
M53.886993,115.183517 
	C45.860790,115.184311 38.321163,115.184311 31.017820,115.184311 
	C41.177513,104.641853 50.865417,94.588951 61.241676,83.821770 
	C61.241676,93.715096 61.512077,102.947830 61.120586,112.152412 
	C60.941383,116.365814 56.915466,114.747650 53.886993,115.183517 
z"/>
<path fill="#000000" opacity="1.000000" stroke="none" 
	d="
M80.844315,115.844666 
	C75.835991,120.614540 71.622002,125.729286 66.465996,129.704193 
	C64.074982,128.154144 64.805527,126.138374 64.781990,124.450058 
	C64.682556,117.316849 64.722176,110.181625 64.725479,103.047134 
	C64.726433,100.979240 64.802162,98.812172 67.634552,98.795006 
	C77.034546,98.738014 86.435089,98.773468 95.835426,98.773468 
	C96.099030,99.210907 96.362640,99.648346 96.626244,100.085785 
	C91.449005,105.255402 86.271759,110.425026 80.844315,115.844666 
z"/>
<path fill="#000000" opacity="1.000000" stroke="none" 
	d="
M85.546768,78.452530 
	C80.159515,72.989197 75.013527,67.784431 69.894890,62.552914 
	C69.725853,62.380157 69.834457,61.935757 69.752274,60.680714 
	C76.174454,60.680714 82.553391,60.680782 88.932320,60.680695 
	C100.384041,60.680538 100.379425,60.680492 100.360237,72.222176 
	C100.349854,78.469063 100.358383,84.715973 100.358383,90.962875 
	C99.913078,91.204475 99.467766,91.446083 99.022461,91.687691 
	C94.612404,87.360771 90.202354,83.033852 85.546768,78.452530 
z"/>
</svg>